<svg width="44" height="44" viewBox="0 0 44 44" fill="none" xmlns="http://www.w3.org/2000/svg">
<g id="icon_email">
<circle id="Ellipse 5" cx="22" cy="22" r="22" fill="#A02924"/>
<path id="Union" fill-rule="evenodd" clip-rule="evenodd" d="M14.1218 16.4164C14.2715 16.168 14.5442 16 14.8519 16H29.6668C29.9745 16 30.2472 16.168 30.3969 16.4164L22.2593 22.1127L14.1218 16.4164ZM12.0001 16.8343C12 16.8442 12 16.8542 12.0001 16.8641V27.963C12.0001 29.5338 13.2811 30.8148 14.8519 30.8148H29.6668C31.2376 30.8148 32.5186 29.5338 32.5186 27.963V16.8641C32.5187 16.8542 32.5187 16.8442 32.5186 16.8343C32.509 15.2715 31.2317 14 29.6668 14H14.8519C13.287 14 12.0097 15.2715 12.0001 16.8343ZM30.5186 18.7725V27.963C30.5186 28.4292 30.133 28.8148 29.6668 28.8148H14.8519C14.3857 28.8148 14.0001 28.4292 14.0001 27.963V18.7725L21.6859 24.1526C22.0302 24.3936 22.4885 24.3936 22.8328 24.1526L30.5186 18.7725Z" fill="white"/>
</g>
</svg>
