<svg width="44" height="44" viewBox="0 0 44 44" fill="none" xmlns="http://www.w3.org/2000/svg">
<g id="icon_location">
<circle id="Ellipse 5" cx="22" cy="22" r="22" fill="#A02924"/>
<path id="Union" fill-rule="evenodd" clip-rule="evenodd" d="M17.8532 15.8532C19.0397 14.6666 20.649 14 22.3271 14C24.0051 14 25.6144 14.6666 26.801 15.8532C27.9875 17.0397 28.6541 18.649 28.6541 20.3271C28.6541 22.7745 27.0566 25.1766 25.2646 27.0682C24.3891 27.9923 23.5102 28.7496 22.849 29.276C22.6533 29.4319 22.4773 29.567 22.3271 29.6796C22.1768 29.567 22.0009 29.4319 21.8051 29.276C21.144 28.7496 20.265 27.9923 19.3895 27.0682C17.5975 25.1766 16 22.7745 16 20.3271C16 18.649 16.6666 17.0397 17.8532 15.8532ZM21.7718 31.7423C21.7721 31.7425 21.7724 31.7427 22.3271 30.9106L21.7724 31.7427C22.1083 31.9666 22.5459 31.9666 22.8818 31.7427L22.3271 30.9106C22.8818 31.7427 22.882 31.7425 22.8823 31.7423L22.883 31.7418L22.8849 31.7406L22.8906 31.7367L22.9099 31.7236C22.9263 31.7126 22.9493 31.6968 22.9787 31.6764C23.0375 31.6357 23.1216 31.5767 23.2274 31.5003C23.4389 31.3475 23.7377 31.125 24.0948 30.8406C24.8075 30.2731 25.7603 29.453 26.7166 28.4436C28.5881 26.4681 30.6541 23.5784 30.6541 20.3271C30.6541 18.1186 29.7768 16.0006 28.2152 14.4389C26.6536 12.8773 24.5355 12 22.3271 12C20.1186 12 18.0006 12.8773 16.4389 14.4389C14.8773 16.0006 14 18.1186 14 20.3271C14 23.5784 16.066 26.4681 17.9376 28.4436C18.8938 29.453 19.8466 30.2731 20.5593 30.8406C20.9164 31.125 21.2152 31.3475 21.4267 31.5003C21.5325 31.5767 21.6166 31.6357 21.6754 31.6764C21.7048 31.6968 21.7279 31.7126 21.7442 31.7236L21.7635 31.7367L21.7693 31.7406L21.7712 31.7418L21.7718 31.7423ZM20.8843 20.327C20.8843 19.5304 21.53 18.8847 22.3266 18.8847C23.1232 18.8847 23.769 19.5304 23.769 20.327C23.769 21.1236 23.1232 21.7694 22.3266 21.7694C21.53 21.7694 20.8843 21.1236 20.8843 20.327ZM22.3266 16.8847C20.4255 16.8847 18.8843 18.4258 18.8843 20.327C18.8843 22.2282 20.4255 23.7694 22.3266 23.7694C24.2278 23.7694 25.769 22.2282 25.769 20.327C25.769 18.4258 24.2278 16.8847 22.3266 16.8847Z" fill="white"/>
</g>
</svg>
