<svg width="44" height="44" viewBox="0 0 44 44" fill="none" xmlns="http://www.w3.org/2000/svg">
<g id="icon_phone">
<circle id="Ellipse 6" cx="22" cy="22" r="22" fill="#A02924"/>
<path id="Vector" d="M31.9598 26.9738V29.9846C31.9609 30.2642 31.9036 30.5408 31.7917 30.7969C31.6797 31.053 31.5155 31.2829 31.3095 31.4719C31.1035 31.6608 30.8604 31.8047 30.5956 31.8942C30.3308 31.9838 30.0503 32.017 29.7719 31.9919C26.6837 31.6563 23.7172 30.601 21.1108 28.9108C18.6859 27.3699 16.6301 25.3141 15.0892 22.8892C13.3931 20.271 12.3376 17.2901 12.0081 14.1879C11.9831 13.9104 12.016 13.6307 12.105 13.3666C12.1939 13.1025 12.3369 12.8599 12.5248 12.6541C12.7126 12.4483 12.9413 12.2838 13.1962 12.1712C13.4511 12.0586 13.7267 12.0004 14.0053 12.0001H17.0161C17.5032 11.9953 17.9754 12.1678 18.3447 12.4854C18.7139 12.803 18.9552 13.244 19.0233 13.7263C19.1504 14.6898 19.3861 15.6359 19.7258 16.5464C19.8609 16.9056 19.8901 17.296 19.8101 17.6713C19.73 18.0466 19.5441 18.3911 19.2742 18.664L17.9997 19.9386C19.4283 22.4512 21.5087 24.5315 24.0213 25.9602L25.2958 24.6856C25.5687 24.4158 25.9132 24.2298 26.2885 24.1498C26.6638 24.0698 27.0542 24.099 27.4134 24.234C28.324 24.5738 29.27 24.8095 30.2336 24.9365C30.7211 25.0053 31.1663 25.2509 31.4846 25.6265C31.8029 26.0021 31.972 26.4817 31.9598 26.9738Z" fill="white" stroke="#A02924" stroke-width="2" stroke-linecap="round" stroke-linejoin="round"/>
</g>
</svg>
