<svg width="50px" height="50px" viewBox="0 0 150 150" fill="none" xmlns="http://www.w3.org/2000/svg">
<g filter="url(#filter0_d_1819_2247)">
<rect x="15" y="15" width="120" height="120" rx="35" fill="url(#paint0_linear_1819_2247)"/>
<rect x="15.5" y="15.5" width="119" height="119" rx="34.5" stroke="#515151" stroke-opacity="0.5"/>
<path fill-rule="evenodd" clip-rule="evenodd" d="M34.536 86.1209C35.0946 88.1381 37.3001 89.1231 39.257 88.3806C41.2061 87.641 42.1675 85.4668 41.6495 83.4475C40.6122 79.4039 40.3099 75.1946 40.7681 71.0236C41.364 65.599 43.2294 60.393 46.2119 55.8311C49.1943 51.2691 53.2092 47.4806 57.9284 44.7752C61.5459 42.7013 65.4986 41.309 69.5918 40.6551C71.6617 40.3245 73.2844 38.5679 73.1852 36.474C73.0859 34.379 71.3023 32.7436 69.225 33.0334C63.9412 33.7702 58.8335 35.5131 54.1805 38.1806C48.4254 41.4799 43.5292 46.1 39.8921 51.6634C36.255 57.2267 33.9801 63.5755 33.2534 70.1908C32.6651 75.5459 33.1048 80.9527 34.536 86.1209ZM111.986 84.475C114.01 85.0034 116.096 83.7899 116.437 81.7265C117.204 77.0817 117.194 72.3314 116.397 67.6735C115.387 61.7679 113.136 56.1463 109.793 51.1829C106.45 46.2195 102.093 42.0283 97.0119 38.8883C93.0116 36.4163 88.6347 34.6405 84.0659 33.6264C82.0174 33.1717 80.1086 34.661 79.8439 36.7425C79.5796 38.8208 81.0567 40.6995 83.0926 41.1937C86.6012 42.0453 89.9625 43.4475 93.0501 45.3555C97.2169 47.9303 100.79 51.3671 103.531 55.4371C106.271 59.5071 108.118 64.1168 108.946 68.9594C109.562 72.5591 109.605 76.2262 109.081 79.8246C108.78 81.8881 109.969 83.9481 111.986 84.475ZM110.408 89.3099C112.337 90.0996 113.278 92.311 112.326 94.165C109.298 100.057 104.921 105.166 99.5331 109.059C93.1261 113.689 85.5498 116.412 77.6726 116.917C69.7954 117.421 61.9362 115.685 54.996 111.909C49.1604 108.734 44.1731 104.225 40.4253 98.7666C39.2454 97.0483 39.8988 94.7356 41.7117 93.7069C43.5342 92.6728 45.8339 93.3315 47.0551 95.0343C50.0787 99.2504 54.0197 102.742 58.5971 105.233C64.2881 108.329 70.7326 109.752 77.1919 109.339C83.6512 108.925 89.8638 106.692 95.1175 102.896C99.3448 99.8408 102.814 95.873 105.28 91.3033C106.275 89.4611 108.47 88.5168 110.408 89.3099Z" fill="url(#paint1_linear_1819_2247)"/>
<path d="M88.3638 86.6627C88.7491 87.3633 88.9068 87.9764 88.8367 88.5018C88.8017 89.0273 88.7491 89.4652 88.6791 89.8155C88.574 90.2009 88.3112 90.5337 87.8909 90.8139C87.5055 91.0592 87.0676 91.2518 86.5772 91.392C85.9466 91.5671 85.4211 91.6022 85.0007 91.4971C84.4752 91.392 84.0373 91.2168 83.687 90.9716C83.4768 90.7964 83.2841 90.6388 83.109 90.4987C82.9338 90.3235 82.7587 90.1659 82.5835 90.0257C82.4083 89.8506 82.2507 89.6929 82.1106 89.5528C81.9704 89.4127 81.8654 89.2725 81.7953 89.1324C81.7252 88.9923 81.6552 88.9047 81.5851 88.8697C81.5501 88.7996 81.515 88.7471 81.48 88.712L74.4911 78.6228L67.5548 88.712C67.5197 88.7471 67.4672 88.7996 67.3971 88.8697C67.3621 88.9047 67.292 88.9923 67.1869 89.1324C67.1169 89.2725 67.0118 89.4127 66.8716 89.5528C66.7665 89.6929 66.6439 89.8506 66.5038 90.0257C66.3286 90.1659 66.136 90.3235 65.9258 90.4987C65.7156 90.6388 65.5229 90.7964 65.3478 90.9716C65.1376 91.1117 64.9098 91.2168 64.6646 91.2869C64.4544 91.3569 64.2442 91.427 64.034 91.4971C63.5786 91.6022 63.0882 91.5671 62.5627 91.392C61.4767 91.1468 60.7235 90.6213 60.3031 89.8155C60.0929 89.3951 60.0054 88.9572 60.0404 88.5018C60.0754 88.0114 60.1805 87.5209 60.3557 87.0305C60.5659 86.54 60.7936 86.0671 61.0388 85.6117C61.3191 85.1563 61.5993 84.7184 61.8796 84.298C62.0197 84.1228 62.1423 83.9652 62.2474 83.8251C62.3875 83.6849 62.5277 83.5273 62.6678 83.3521C63.1232 82.7566 63.5611 82.161 63.9815 81.5655C64.4019 80.9349 64.8573 80.2693 65.3478 79.5687L70.2347 72.4747L63.0356 62.0702L62.4051 61.1769C62.2649 60.9667 62.1248 60.774 61.9847 60.5988C61.8445 60.4237 61.7044 60.2135 61.5643 59.9682C61.4242 59.7931 61.284 59.6004 61.1439 59.3902C61.0038 59.18 60.8812 58.9348 60.7761 58.6545C60.671 58.4444 60.5659 58.2517 60.4608 58.0765C60.3907 57.8663 60.3207 57.6211 60.2506 57.3408C60.1455 56.9205 60.1105 56.5351 60.1455 56.1848C60.2506 55.7294 60.4783 55.344 60.8286 55.0287C60.9687 54.8536 61.1264 54.7134 61.3016 54.6083C61.5117 54.5032 61.7044 54.3982 61.8796 54.2931C62.2299 54.1529 62.5452 54.0478 62.8254 53.9778C63.1057 53.9077 63.4035 53.8727 63.7188 53.8727C64.3493 53.9077 64.9449 54.1354 65.5054 54.5558C66.206 55.0112 66.8366 55.5717 67.3971 56.2373C67.6423 56.6227 67.8876 56.9905 68.1328 57.3408C68.378 57.6561 68.6408 57.9889 68.921 58.3393L68.9736 58.5494C69.8494 59.7055 70.6376 60.8265 71.3382 61.9125C72.0739 62.9635 72.8796 64.0845 73.7554 65.2756C73.8956 65.4508 74.0182 65.6259 74.1233 65.8011C74.2284 65.9762 74.351 66.1514 74.4911 66.3266C74.6312 66.1514 74.7538 65.9762 74.8589 65.8011C74.964 65.6259 75.0867 65.4508 75.2268 65.2756C76.0325 64.0845 76.8032 62.9635 77.5389 61.9125C78.3096 60.8265 79.1153 59.7055 79.9561 58.5494L80.0612 58.3393C80.3415 57.9889 80.6042 57.6561 80.8494 57.3408C81.1297 56.9905 81.3924 56.6227 81.6376 56.2373C82.1982 55.5717 82.8287 55.0112 83.5294 54.5558C84.0549 54.1354 84.6504 53.9077 85.316 53.8727C85.8765 53.8727 86.4721 54.0128 87.1026 54.2931C87.523 54.5383 87.8383 54.7835 88.0485 55.0287C88.4689 55.344 88.7316 55.7294 88.8367 56.1848C88.8718 56.5351 88.8367 56.9205 88.7316 57.3408C88.6616 57.6211 88.574 57.8663 88.4689 58.0765C88.3988 58.2517 88.2762 58.4444 88.1011 58.6545C87.8909 59.18 87.6632 59.6179 87.4179 59.9682C87.2778 60.2135 87.1377 60.4237 86.9975 60.5988C86.8574 60.774 86.7348 60.9667 86.6297 61.1769L85.9991 62.0702L78.7475 72.4747L83.6345 79.5687L86.4721 83.5623C86.7874 84.0878 87.1026 84.5958 87.4179 85.0862C87.7332 85.5767 88.0485 86.1021 88.3638 86.6627Z" fill="url(#paint2_linear_1819_2247)"/>
</g>
<defs>
<filter id="filter0_d_1819_2247" x="0" y="0" width="150" height="150" filterUnits="userSpaceOnUse" color-interpolation-filters="sRGB">
<feFlood flood-opacity="0" result="BackgroundImageFix"/>
<feColorMatrix in="SourceAlpha" type="matrix" values="0 0 0 0 0 0 0 0 0 0 0 0 0 0 0 0 0 0 127 0" result="hardAlpha"/>
<feOffset/>
<feGaussianBlur stdDeviation="7.5"/>
<feComposite in2="hardAlpha" operator="out"/>
<feColorMatrix type="matrix" values="0 0 0 0 0 0 0 0 0 0 0 0 0 0 0 0 0 0 0.25 0"/>
<feBlend mode="normal" in2="BackgroundImageFix" result="effect1_dropShadow_1819_2247"/>
<feBlend mode="normal" in="SourceGraphic" in2="effect1_dropShadow_1819_2247" result="shape"/>
</filter>
<linearGradient id="paint0_linear_1819_2247" x1="75" y1="15" x2="75" y2="135" gradientUnits="userSpaceOnUse">
<stop stop-color="#3B3B3B"/>
<stop offset="0.45" stop-color="#2A2A2A"/>
<stop offset="1" stop-color="#1D1D1D"/>
</linearGradient>
<linearGradient id="paint1_linear_1819_2247" x1="75.0019" y1="33" x2="75.0019" y2="117.002" gradientUnits="userSpaceOnUse">
<stop stop-color="#0FDEEC"/>
<stop offset="1" stop-color="#925FD8"/>
</linearGradient>
<linearGradient id="paint2_linear_1819_2247" x1="74.7247" y1="44.4971" x2="74.7247" y2="107.719" gradientUnits="userSpaceOnUse">
<stop stop-color="#0FDEEC"/>
<stop offset="0.793592" stop-color="#925FD8"/>
</linearGradient>
</defs>
</svg>

