<?xml version="1.0" encoding="iso-8859-1"?>
<!-- Uploaded to: SVG Repo, www.svgrepo.com, Generator: SVG Repo Mixer Tools -->
<svg fill="#FFFFFF" height="50px" width="50px" version="1.1" id="Layer_1" xmlns="http://www.w3.org/2000/svg" xmlns:xlink="http://www.w3.org/1999/xlink"
     viewBox="0 0 512 512" xml:space="preserve">
<g>
    <g>
        <g>
            <path d="M46.164,83.934c-9.258,0-16.787,7.529-16.787,16.787c0,9.258,7.529,16.787,16.787,16.787
                c9.258,0,16.787-7.529,16.787-16.787C62.951,91.463,55.422,83.934,46.164,83.934z"/>
            <path d="M46.164,167.869c-9.258,0-16.787,7.529-16.787,16.787c0,9.258,7.529,16.787,16.787,16.787
                c9.258,0,16.787-7.529,16.787-16.787C62.951,175.398,55.422,167.869,46.164,167.869z"/>
            <path d="M46.164,8.393c-23.141,0-41.967,18.827-41.967,41.967v276.984c0,20.262,14.445,37.217,33.574,41.12v126.749H20.984
                c-4.633,0-8.393,3.76-8.393,8.393c0,4.633,3.76,8.393,8.393,8.393h50.361c4.633,0,8.393-3.76,8.393-8.393
                c0-4.633-3.76-8.393-8.393-8.393H54.557V368.464c19.129-3.903,33.574-20.858,33.574-41.12V50.361
                C88.131,27.22,69.305,8.393,46.164,8.393z M54.557,327.344c0,4.633-3.76,8.393-8.393,8.393s-8.393-3.76-8.393-8.393V243.41
                c0-4.633,3.76-8.393,8.393-8.393s8.393,3.76,8.393,8.393V327.344z M46.164,218.229c-18.516,0-33.574-15.058-33.574-33.574
                s15.058-33.574,33.574-33.574s33.574,15.058,33.574,33.574S64.68,218.229,46.164,218.229z M46.164,134.295
                c-18.516,0-33.574-15.058-33.574-33.574s15.058-33.574,33.574-33.574s33.574,15.058,33.574,33.574S64.68,134.295,46.164,134.295z
                "/>
            <path d="M465.836,159.475c-9.258,0-16.787,7.529-16.787,16.787c0,9.258,7.529,16.787,16.787,16.787
                c9.258,0,16.787-7.529,16.787-16.787C482.623,167.004,475.094,159.475,465.836,159.475z"/>
            <path d="M465.836,117.508c9.258,0,16.787-7.529,16.787-16.787c0-9.258-7.529-16.787-16.787-16.787
                c-9.258,0-16.787,7.529-16.787,16.787C449.049,109.979,456.578,117.508,465.836,117.508z"/>
            <path d="M507.803,318.951V41.967C507.803,18.826,488.977,0,465.836,0c-23.141,0-41.967,18.826-41.967,41.967v276.984
                c0,20.321,14.529,37.3,33.742,41.136c-0.034,0.285-0.168,0.537-0.168,0.831v134.295h-16.787c-4.633,0-8.393,3.76-8.393,8.393
                c0,4.633,3.76,8.393,8.393,8.393h50.361c4.633,0,8.393-3.76,8.393-8.393c0-4.633-3.76-8.393-8.393-8.393h-16.787V360.918
                c0-0.294-0.134-0.546-0.168-0.831C493.274,356.251,507.803,339.271,507.803,318.951z M465.836,67.148
                c18.516,0,33.574,15.058,33.574,33.574s-15.058,33.574-33.574,33.574s-33.574-15.058-33.574-33.574S447.32,67.148,465.836,67.148
                z M474.229,327.344c0,4.633-3.76,8.393-8.393,8.393s-8.393-3.76-8.393-8.393V243.41c0-4.633,3.76-8.393,8.393-8.393
                s8.393,3.76,8.393,8.393V327.344z M465.836,209.836c-18.516,0-33.574-15.058-33.574-33.574c0-18.516,15.058-33.574,33.574-33.574
                s33.574,15.058,33.574,33.574C499.41,194.778,484.352,209.836,465.836,209.836z"/>
            <path d="M146.885,285.377h218.23V134.295h-218.23V285.377z M216.492,170.328l16.787-16.787c3.282-3.282,8.586-3.282,11.868,0
                c3.282,3.282,3.282,8.586,0,11.868l-16.787,16.787c-1.637,1.637-3.785,2.459-5.934,2.459c-2.149,0-4.297-0.823-5.934-2.459
                C213.21,178.915,213.21,173.61,216.492,170.328z M166.131,178.722l25.18-25.18c3.282-3.282,8.587-3.282,11.868,0
                c3.282,3.282,3.282,8.586,0,11.868L178,190.59c-1.637,1.637-3.785,2.459-5.934,2.459c-2.149,0-4.297-0.823-5.934-2.459
                C162.85,187.308,162.85,182.003,166.131,178.722z M166.131,220.689l33.574-33.574c3.282-3.282,8.586-3.282,11.868,0
                c3.282,3.282,3.282,8.587,0,11.868L178,232.557c-1.637,1.637-3.785,2.459-5.934,2.459c-2.149,0-4.297-0.823-5.934-2.459
                C162.85,229.275,162.85,223.971,166.131,220.689z"/>
            <path d="M373.508,92.33H138.492c-18.516,0-33.574,15.058-33.574,33.574v167.869c0,18.508,15.058,33.574,33.574,33.574h46.886
                l-33.574,33.574h-38.492c-4.633,0-8.393,3.76-8.393,8.393v58.754h302.164v-58.754c0-4.633-3.76-8.393-8.393-8.393h-38.492
                l-33.574-33.574h46.886c18.516,0,33.574-15.066,33.574-33.574V125.903C407.082,107.387,392.024,92.33,373.508,92.33z
                 M272.787,411.28h-33.574c-4.633,0-8.393-3.76-8.393-8.393s3.76-8.393,8.393-8.393h33.574c4.633,0,8.393,3.76,8.393,8.393
                S277.42,411.28,272.787,411.28z M336.46,360.92H175.54l33.574-33.574h93.772L336.46,360.92z M381.902,287.057
                c0,8.326-6.782,15.108-15.108,15.108H145.207c-8.326,0-15.108-6.782-15.108-15.108V132.618c0-8.335,6.782-15.108,15.108-15.108
                h221.587c8.326,0,15.108,6.773,15.108,15.108V287.057z"/>
            <path d="M104.918,503.607c0,4.633,3.76,8.393,8.393,8.393h285.377c4.633,0,8.393-3.76,8.393-8.393v-58.754H104.918V503.607z
                 M239.213,461.639h33.574c4.633,0,8.393,3.76,8.393,8.393s-3.76,8.393-8.393,8.393h-33.574c-4.633,0-8.393-3.76-8.393-8.393
                S234.58,461.639,239.213,461.639z"/>
        </g>
    </g>
</g>
</svg>
